<svg width="67" height="54" viewBox="0 0 67 54" fill="none" xmlns="http://www.w3.org/2000/svg">
<path d="M0.139674 28V25.4858C0.591953 25.4858 0.957767 25.4592 1.23712 25.406C1.51647 25.3395 1.73595 25.1932 1.89558 24.9671C2.05521 24.7409 2.18158 24.3951 2.2747 23.9295C2.36781 23.4639 2.44098 22.8387 2.49419 22.0538C2.5607 21.269 2.64051 20.2713 2.73363 19.0608L3.25242 11.8377H11.8125V28H8.26074V14.5713H6.48488L6.16563 19.7392C6.07251 21.0695 5.9794 22.2201 5.88628 23.1912C5.79316 24.149 5.64019 24.9538 5.42735 25.6056C5.22781 26.2574 4.92186 26.7695 4.50949 27.142C4.11042 27.5011 3.55837 27.7472 2.85335 27.8803C2.14833 28.0133 1.24377 28.0532 0.139674 28ZM16.4866 28.1995C15.9013 28.1995 15.4091 28.0598 15.01 27.7805C14.6109 27.5011 14.3116 27.1486 14.1121 26.723C13.9126 26.284 13.8128 25.8384 13.8128 25.3861C13.8128 24.6678 13.9525 24.0625 14.2318 23.5703C14.5245 23.0781 14.9036 22.6658 15.3692 22.3332C15.8348 22.0006 16.3469 21.7213 16.9056 21.4951C17.4643 21.2557 18.0163 21.0429 18.5617 20.8566V19.6993C18.5617 19.4998 18.5418 19.3269 18.5019 19.1805C18.462 19.0209 18.3955 18.9012 18.3023 18.8214C18.2092 18.7283 18.0695 18.6817 17.8833 18.6817C17.6971 18.6817 17.5508 18.7216 17.4443 18.8014C17.3512 18.8812 17.2847 18.9943 17.2448 19.1406C17.2049 19.2737 17.1783 19.4266 17.165 19.5996L17.0852 20.4376L14.0522 20.3179C14.1188 18.9344 14.4846 17.9168 15.1497 17.265C15.8281 16.5999 16.8391 16.2673 18.1826 16.2673C19.3532 16.2673 20.2245 16.5932 20.7965 17.2451C21.3818 17.8836 21.6745 18.715 21.6745 19.7392V25.1267C21.6745 25.6056 21.6811 26.0246 21.6944 26.3838C21.721 26.7429 21.7476 27.0555 21.7742 27.3216C21.8142 27.5876 21.8474 27.8138 21.874 28H18.9608C18.9209 27.694 18.8743 27.3615 18.8211 27.0023C18.7679 26.6431 18.728 26.4303 18.7014 26.3638C18.5684 26.8427 18.3156 27.2684 17.9432 27.6408C17.584 28.0133 17.0985 28.1995 16.4866 28.1995ZM17.6439 26.0046C17.7769 26.0046 17.8966 25.978 18.003 25.9248C18.1228 25.8716 18.2292 25.7984 18.3223 25.7053C18.4154 25.6122 18.4952 25.5191 18.5617 25.426V22.2733C18.2957 22.433 18.0496 22.5992 17.8235 22.7722C17.5973 22.9318 17.4044 23.1114 17.2448 23.3109C17.0852 23.5104 16.9588 23.7299 16.8657 23.9694C16.7859 24.1955 16.746 24.4549 16.746 24.7476C16.746 25.1333 16.8258 25.4393 16.9854 25.6654C17.145 25.8916 17.3645 26.0046 17.6439 26.0046ZM23.6017 28V16.4669H31.7826V28H28.5302V18.6817H26.8541V28H23.6017ZM33.7928 28V16.4669H37.0452V21.0163H37.5241L39.28 16.4669H42.7719L40.4972 21.9142L42.8317 28H39.3997L37.5241 22.8919H37.0452V28H33.7928ZM44.0229 28V16.4669H46.5969V22.6325L49.6098 16.4669H52.1439V28H49.5101V21.8942L46.5769 28H44.0229Z" fill="black"/>
<path d="M2.07998 48V36.4669H3.87579V44.2288L7.3477 36.4669H9.02379V48H7.26788V40.1782L3.81593 48H2.07998ZM15.759 48V36.4669H17.8941V41.3355H18.4927L20.6676 36.4669H22.8625L20.4481 42.0539L22.9024 48H20.6676L18.4927 42.6126H17.8941V48H15.759ZM27.2131 48.1596C26.3618 48.1596 25.69 47.9867 25.1978 47.6408C24.7056 47.295 24.3531 46.8028 24.1403 46.1643C23.9407 45.5258 23.841 44.7742 23.841 43.9095V40.5573C23.841 39.6927 23.9407 38.9411 24.1403 38.3026C24.3531 37.6641 24.7056 37.1719 25.1978 36.826C25.69 36.4802 26.3618 36.3073 27.2131 36.3073C28.0645 36.3073 28.7296 36.4802 29.2085 36.826C29.7006 37.1719 30.0465 37.6641 30.246 38.3026C30.4589 38.9411 30.5653 39.6927 30.5653 40.5573V43.9095C30.5653 44.7742 30.4589 45.5258 30.246 46.1643C30.0465 46.8028 29.7006 47.295 29.2085 47.6408C28.7296 47.9867 28.0645 48.1596 27.2131 48.1596ZM27.2131 46.5833C27.6255 46.5833 27.9115 46.4636 28.0711 46.2241C28.244 45.9847 28.3438 45.6721 28.3704 45.2863C28.4103 44.8873 28.4303 44.4749 28.4303 44.0492V40.4376C28.4303 39.9987 28.4103 39.5863 28.3704 39.2005C28.3438 38.8147 28.244 38.5021 28.0711 38.2627C27.9115 38.01 27.6255 37.8836 27.2131 37.8836C26.8007 37.8836 26.5081 38.01 26.3352 38.2627C26.1622 38.5021 26.0558 38.8147 26.0159 39.2005C25.9893 39.5863 25.976 39.9987 25.976 40.4376V44.0492C25.976 44.4749 25.9893 44.8873 26.0159 45.2863C26.0558 45.6721 26.1622 45.9847 26.3352 46.2241C26.5081 46.4636 26.8007 46.5833 27.2131 46.5833ZM36.4876 51.7912V47.3615H36.288C35.8491 47.3615 35.3968 47.3083 34.9312 47.2019C34.4656 47.0821 34.0333 46.8693 33.6342 46.5633C33.2352 46.2574 32.9093 45.8118 32.6565 45.2265C32.4171 44.6412 32.2974 43.8829 32.2974 42.9518V40.8766C32.2974 40.1317 32.3971 39.4932 32.5967 38.9611C32.8095 38.429 33.0955 37.9967 33.4547 37.6641C33.8271 37.3182 34.2461 37.0655 34.7117 36.9059C35.1906 36.7462 35.6961 36.6664 36.2282 36.6664H36.4876V31.8377H38.463V36.6664H38.8022C39.5072 36.6664 40.1524 36.8127 40.7377 37.1054C41.323 37.3847 41.7886 37.837 42.1344 38.4622C42.4936 39.0741 42.6732 39.8789 42.6732 40.8766V42.9518C42.6732 43.8829 42.5534 44.6412 42.314 45.2265C42.0746 45.8118 41.7553 46.2574 41.3562 46.5633C40.9705 46.8693 40.5448 47.0821 40.0792 47.2019C39.6269 47.3083 39.1813 47.3615 38.7423 47.3615H38.463V51.7912H36.4876ZM36.3479 45.845H36.4876V38.0632H36.288C35.8757 38.0632 35.5165 38.1297 35.2106 38.2627C34.9046 38.3957 34.6652 38.6418 34.4922 39.001C34.3193 39.3601 34.2328 39.8789 34.2328 40.5573V42.9318C34.2328 43.7033 34.3127 44.302 34.4723 44.7276C34.6319 45.14 34.8714 45.4327 35.1906 45.6056C35.5099 45.7652 35.8956 45.845 36.3479 45.845ZM38.463 45.845H38.5827C39.0483 45.845 39.4407 45.7652 39.76 45.6056C40.0792 45.4327 40.3187 45.14 40.4783 44.7276C40.6512 44.302 40.7377 43.7033 40.7377 42.9318V40.5573C40.7377 39.8789 40.6512 39.3601 40.4783 39.001C40.3054 38.6418 40.0593 38.3957 39.74 38.2627C39.434 38.1297 39.0682 38.0632 38.6426 38.0632H38.463V45.845ZM47.8101 48.1596C46.9055 48.1596 46.2072 47.9867 45.715 47.6408C45.2228 47.2817 44.8769 46.7629 44.6774 46.0845C44.4912 45.3927 44.398 44.548 44.398 43.5504V40.9165C44.398 39.8922 44.4978 39.0409 44.6973 38.3625C44.8969 37.684 45.2427 37.1719 45.7349 36.826C46.2404 36.4802 46.9321 36.3073 47.8101 36.3073C48.7812 36.3073 49.4928 36.5068 49.9451 36.9059C50.4107 37.3049 50.7167 37.8836 50.863 38.6418C51.0093 39.3867 51.0825 40.2847 51.0825 41.3355V42.2733H46.5331V44.588C46.5331 45.0535 46.573 45.4327 46.6528 45.7253C46.7459 46.018 46.8856 46.2374 47.0718 46.3838C47.2713 46.5168 47.5241 46.5833 47.83 46.5833C48.1493 46.5833 48.3887 46.5101 48.5484 46.3638C48.7213 46.2042 48.8344 45.9847 48.8876 45.7053C48.9541 45.4127 48.9873 45.0735 48.9873 44.6877V43.9893H51.0625V44.4283C51.0625 45.5856 50.8164 46.4968 50.3242 47.162C49.832 47.8271 48.994 48.1596 47.8101 48.1596ZM46.5331 41.116H48.9873V40.0785C48.9873 39.5996 48.9607 39.2005 48.9075 38.8813C48.8543 38.5487 48.7413 38.3026 48.5683 38.143C48.4087 37.97 48.1493 37.8836 47.7901 37.8836C47.4443 37.8836 47.1782 37.9634 46.992 38.123C46.8191 38.2827 46.6993 38.5553 46.6328 38.9411C46.5663 39.3136 46.5331 39.8324 46.5331 40.4975V41.116Z" fill="#FCBABC"/>
<path d="M55.3222 6.51589C55.3921 5.09606 57.2391 4.59587 58.0192 5.78552V5.78552C58.3677 6.31698 59.0197 6.56423 59.6329 6.39817V6.39817C61.0039 6.0269 62.0549 7.62599 61.1638 8.73102V8.73102C60.765 9.22564 60.7311 9.9213 61.0799 10.4532V10.4532C61.859 11.6414 60.6567 13.1283 59.3278 12.6245V12.6245C58.7332 12.399 58.0588 12.5817 57.6602 13.076V13.076C56.7691 14.1811 54.9781 13.5048 55.0479 12.0866V12.0866C55.0792 11.4519 54.6973 10.8688 54.1025 10.6433V10.6433C52.7736 10.1394 52.8696 8.22972 54.2406 7.85845V7.85845C54.8538 7.6924 55.2909 7.15018 55.3222 6.51589V6.51589Z" fill="#FCBABC"/>
</svg>
