<svg width="25" height="24" viewBox="0 0 25 24" fill="none" xmlns="http://www.w3.org/2000/svg">
<path d="M23.15 14.39L12.5 22.13L1.84999 14.39C1.70722 14.285 1.60131 14.1375 1.54743 13.9687C1.49354 13.7998 1.49444 13.6183 1.54999 13.45L2.76999 9.66999L5.20999 2.15999C5.23366 2.0988 5.27133 2.044 5.31999 1.99999C5.39923 1.92761 5.50267 1.88748 5.60999 1.88748C5.71731 1.88748 5.82075 1.92761 5.89999 1.99999C5.95137 2.04966 5.98924 2.11161 6.00999 2.17999L8.44999 9.66999H16.55L18.99 2.15999C19.0137 2.0988 19.0513 2.044 19.1 1.99999C19.1792 1.92761 19.2827 1.88748 19.39 1.88748C19.4973 1.88748 19.6008 1.92761 19.68 1.99999C19.7314 2.04966 19.7692 2.11161 19.79 2.17999L22.23 9.68999L23.5 13.45C23.5505 13.6235 23.5437 13.8086 23.4807 13.978C23.4176 14.1473 23.3017 14.2918 23.15 14.39Z" stroke="black" stroke-width="2" stroke-linecap="round" stroke-linejoin="round"/>
</svg>
