<svg width="1024" height="1024" viewBox="0 0 1024 1024" fill="none" xmlns="http://www.w3.org/2000/svg">
<circle cx="512" cy="512" r="512" fill="white"/>
<path d="M338.842 872.378C323.61 872.378 309.121 862.654 300.084 846.366C286.588 822.046 289.635 791.016 307.019 775.723C313.55 769.979 321.458 766.946 329.888 766.946C345.119 766.946 359.609 776.67 368.652 792.957C382.148 817.282 379.099 848.312 361.711 863.602C355.182 869.343 347.274 872.378 338.842 872.378ZM329.888 791.271C327.391 791.271 325.163 792.159 323.085 793.987C315.379 800.768 312.772 819.098 321.354 834.565C325.901 842.76 332.765 848.053 338.842 848.053C341.341 848.053 343.569 847.163 345.649 845.335C353.355 838.558 355.962 820.227 347.382 804.761C342.831 796.568 335.965 791.271 329.888 791.271Z" fill="black"/>
<path d="M685.32 872.378C676.886 872.378 668.98 869.343 662.451 863.602C645.065 848.31 642.018 817.282 655.512 792.959C664.553 776.67 679.042 766.946 694.274 766.946C702.704 766.946 710.614 769.979 717.143 775.723C734.525 791.014 737.57 822.046 724.074 846.366C715.039 862.654 700.552 872.378 685.32 872.378ZM694.274 791.271C688.197 791.271 681.329 796.566 676.78 804.763C668.2 820.227 670.807 838.558 678.513 845.337C680.591 847.163 682.819 848.053 685.318 848.053C691.393 848.053 698.257 842.76 702.802 834.565C711.384 819.096 708.779 800.766 701.075 793.987C698.999 792.159 696.773 791.271 694.274 791.271Z" fill="black"/>
<path d="M560.47 411.216C553.754 411.216 548.308 416.661 548.308 423.378C548.308 430.013 542.907 435.411 536.271 435.411C529.636 435.411 524.24 430.013 524.24 423.378V407.614L553.779 382.298C557.516 379.095 558.956 373.957 557.423 369.276C549.137 343.975 524.676 337.462 512.441 337.52C512.404 337.518 512.372 337.512 512.337 337.512C512.26 337.51 512.169 337.516 512.09 337.516C512.003 337.516 511.904 337.51 511.818 337.512C511.78 337.512 511.744 337.518 511.703 337.52C499.462 337.48 475.019 343.985 466.733 369.276C465.198 373.955 466.637 379.095 470.375 382.298L499.914 407.614V423.378C499.914 430.013 494.516 435.411 487.879 435.411C481.244 435.411 475.846 430.013 475.846 423.378C475.846 416.661 470.4 411.216 463.684 411.216C456.966 411.216 451.522 416.661 451.522 423.378C451.522 443.426 467.831 459.736 487.879 459.736C497.175 459.736 505.64 456.199 512.076 450.44C518.51 456.199 526.975 459.736 536.269 459.736C556.321 459.736 572.63 443.424 572.63 423.378C572.632 416.663 567.188 411.216 560.47 411.216ZM511.908 361.833H511.914C511.938 361.833 511.958 361.831 511.983 361.831C512.013 361.831 512.041 361.835 512.072 361.835C512.161 361.835 512.25 361.833 512.337 361.833C512.477 361.839 523.841 361.705 530.66 370.075L512.078 386L493.486 370.067C499.92 362.129 510.398 361.833 511.908 361.833Z" fill="black"/>
<path d="M466.538 335.873H423.98C417.262 335.873 411.818 330.426 411.818 323.71C411.818 316.995 417.262 311.548 423.98 311.548H466.538C473.254 311.548 478.7 316.995 478.7 323.71C478.7 330.426 473.254 335.873 466.538 335.873Z" fill="black"/>
<path d="M600.178 335.873H557.62C550.902 335.873 545.458 330.426 545.458 323.71C545.458 316.995 550.902 311.548 557.62 311.548H600.178C606.894 311.548 612.34 316.995 612.34 323.71C612.34 330.426 606.896 335.873 600.178 335.873Z" fill="black"/>
<path d="M293.505 717.164C290.245 711.293 282.846 709.173 276.968 712.433C271.095 715.692 268.977 723.097 272.237 728.969L284.89 751.764C287.113 755.767 291.261 758.025 295.536 758.025C297.53 758.025 299.555 757.533 301.426 756.495C307.299 753.235 309.417 745.83 306.157 739.958L293.505 717.164Z" fill="black"/>
<path d="M739.272 751.764L751.925 728.969C755.185 723.097 753.067 715.692 747.194 712.433C741.32 709.173 733.917 711.291 730.657 717.164L718.005 739.958C714.745 745.83 716.861 753.235 722.736 756.495C724.607 757.533 726.63 758.025 728.626 758.025C732.901 758.025 737.049 755.767 739.272 751.764Z" fill="black"/>
<path d="M765.809 684.226C756.399 675.95 745.362 670.752 733.469 668.889C734.456 665.717 735.362 662.543 736.179 659.374C739.116 659.81 742.108 660.055 745.153 660.055C781.551 660.055 811.162 627.89 811.162 588.35C811.162 548.811 781.553 516.643 745.153 516.643C733.536 516.643 722.614 519.931 713.121 525.68C699.1 506.999 680.857 492.517 660.576 483.548C673.263 473.076 683.997 461.414 692.543 448.859L751.664 460.348C752.448 460.5 753.227 460.573 753.997 460.573C759.701 460.573 764.793 456.539 765.922 450.728C767.205 444.133 762.898 437.75 756.304 436.469L705.056 426.51C712.548 409.708 716.49 391.821 716.49 373.472C716.49 372.108 716.466 370.738 716.423 369.363L756.306 361.614C762.9 360.333 767.207 353.95 765.924 347.356C764.643 340.762 758.26 336.46 751.666 337.737L713.553 345.144C711.092 332.939 707.127 320.576 701.798 308.361C760.638 223.687 747.49 126.879 746.886 122.707C746.053 116.942 741.251 112.58 735.433 112.298C669.631 109.134 627.717 131.955 604.149 151.656C588.755 164.523 578.955 177.762 573.445 186.594C553.554 179.495 532.902 175.798 512.082 175.798C491.258 175.798 470.608 179.495 450.715 186.598C445.209 177.768 435.419 164.534 420.013 151.656C396.443 131.951 354.513 109.13 288.729 112.296C282.911 112.578 278.109 116.94 277.276 122.705C276.672 126.877 263.526 223.687 322.366 308.363C317.039 320.574 313.074 332.939 310.613 345.142L272.498 337.735C265.908 336.458 259.521 340.76 258.24 347.354C256.957 353.948 261.264 360.331 267.858 361.612L307.743 369.363C307.7 370.738 307.676 372.108 307.676 373.47C307.676 391.819 311.616 409.706 319.108 426.508L267.86 436.467C261.266 437.748 256.959 444.131 258.242 450.725C259.371 456.537 264.461 460.571 270.167 460.571C270.937 460.571 271.72 460.498 272.5 460.346L331.619 448.857C340.169 461.416 350.945 473.056 363.647 483.523C343.342 492.489 325.082 506.984 311.051 525.682C301.556 519.931 290.636 516.641 279.015 516.641C242.613 516.641 213 548.809 213 588.348C213 627.888 242.613 660.053 279.015 660.053C282.058 660.053 285.046 659.81 287.981 659.374C288.804 662.539 289.744 665.711 290.74 668.881C278.829 670.736 267.773 675.937 258.349 684.226C221.11 716.981 217.603 788.875 250.365 847.893C272.308 887.434 306.445 911.998 339.454 911.998C355.133 911.998 369.758 906.424 381.746 895.879C389.192 889.33 395.261 881.193 399.986 871.93C433.815 883.97 472.287 890.331 512.074 890.333H512.078H512.09H512.094C551.875 890.331 590.351 883.98 624.182 871.94C628.907 881.201 634.976 889.334 642.42 895.883C654.408 906.426 669.033 912 684.712 912H684.714C717.719 912 751.856 887.436 773.799 847.895C806.557 788.873 803.046 716.983 765.809 684.226ZM724.799 576.186H704.861C709.598 555.936 725.864 540.966 745.153 540.966C768.138 540.966 786.837 562.222 786.837 588.348C786.837 614.475 768.138 635.729 745.153 635.729C725.864 635.729 709.598 620.761 704.861 600.511H724.799C731.517 600.511 736.962 595.064 736.962 588.348C736.962 581.631 731.515 576.186 724.799 576.186ZM723.881 140.426C724.943 167.278 722.76 227.693 688.912 283.477C680.058 268.775 669.268 254.634 656.783 241.657C652.502 237.206 648.097 232.977 643.595 228.949C662.589 170.971 702.903 148.455 723.881 140.426ZM672.394 142.913C654.187 158.002 635.807 180.276 623.487 212.871C614.619 206.571 605.444 201.037 596.031 196.293C605.852 181.534 628.737 155.162 672.394 142.913ZM428.123 196.295C418.712 201.041 409.537 206.571 400.669 212.873C388.361 180.3 370.004 158.019 351.811 142.931C395.435 155.187 418.31 181.547 428.123 196.295ZM300.279 140.434C321.253 148.457 361.567 170.953 380.565 228.949C376.062 232.977 371.658 237.206 367.377 241.659C354.892 254.64 344.098 268.785 335.242 283.491C301.388 227.697 299.217 167.276 300.279 140.434ZM358.085 443.71L431.038 429.533C437.632 428.252 441.94 421.868 440.657 415.274C439.376 408.68 432.98 404.379 426.398 405.656L343.802 421.708C336.182 406.665 332.108 390.566 332.013 374.078L426.398 392.423C427.183 392.575 427.961 392.648 428.731 392.648C434.436 392.648 439.528 388.614 440.657 382.803C441.94 376.209 437.632 369.826 431.038 368.545L334.415 349.766C348.691 277.406 424.748 200.121 512.078 200.121C599.41 200.121 675.469 277.406 689.747 349.764L593.118 368.545C586.524 369.826 582.216 376.209 583.499 382.803C584.628 388.614 589.718 392.648 595.424 392.648C596.195 392.648 596.975 392.575 597.758 392.423L692.149 374.078C692.052 390.566 687.978 406.665 680.358 421.708L597.758 405.656C591.168 404.379 584.78 408.68 583.499 415.274C582.216 421.868 586.524 428.252 593.118 429.533L666.073 443.71C656.828 455.179 645.247 465.663 631.622 474.805C625.34 473.749 618.977 473.191 612.577 473.191H612.385C573.552 473.256 538.478 492.432 512.08 527.602C485.678 492.434 450.607 473.258 411.777 473.193H411.583C405.183 473.193 398.814 473.749 392.528 474.809C378.908 465.665 367.328 455.183 358.085 443.71ZM279.013 635.729C256.024 635.729 237.323 614.475 237.323 588.348C237.323 562.222 256.024 540.966 279.013 540.966C298.303 540.966 314.566 555.936 319.303 576.186H299.363C292.645 576.186 287.2 581.631 287.2 588.348C287.2 595.064 292.645 600.511 299.363 600.511H319.303C314.566 620.761 298.301 635.729 279.013 635.729ZM365.68 877.617C358.093 884.29 349.269 887.676 339.454 887.676C315.277 887.676 289.29 867.91 271.633 836.091C260.532 816.094 254.324 793.752 252.886 772.717L267.716 783.898C269.91 785.553 272.48 786.351 275.028 786.351C278.715 786.351 282.36 784.681 284.75 781.509C288.794 776.143 287.723 768.519 282.36 764.475L263.411 750.191C260.464 747.967 256.833 747.3 253.486 748.03C255.886 728.986 262.876 712.641 274.412 702.494C282.001 695.817 290.829 692.43 300.646 692.43C304.639 692.43 308.679 692.981 312.725 694.023C308.977 696.573 306.802 701.116 307.528 705.897L311.667 733.212C312.579 739.238 317.766 743.556 323.677 743.556C324.283 743.556 324.9 743.511 325.516 743.416C332.154 742.411 336.723 736.21 335.718 729.571L331.621 702.53C345.371 711.389 358.297 725.7 368.463 744.014C394.977 791.782 393.702 852.966 365.68 877.617ZM316.761 670.018C314.454 663.686 312.528 657.347 310.992 651.049C331.269 638.798 345.024 615.29 345.024 588.348C345.024 570.652 339.081 554.446 329.266 541.927C349.19 514.33 380.003 497.52 411.585 497.52H411.737C447.084 497.579 479.021 518.206 501.661 555.599C503.949 559.376 507.961 561.464 512.078 561.464L512.082 561.455L512.086 561.464C516.201 561.464 520.217 559.376 522.503 555.599C545.143 518.206 577.082 497.579 612.429 497.518H612.579C644.161 497.518 674.974 514.332 694.894 541.927C685.077 554.448 679.136 570.654 679.136 588.348C679.136 615.306 692.908 638.824 713.204 651.07C711.668 657.355 709.728 663.688 707.423 670.012C679.758 676.477 652.812 699.08 634.429 732.211C623.73 751.488 616.925 772.133 613.875 792.343C585.117 816.534 550.924 839.697 512.082 861.3C473.01 839.582 438.826 816.485 410.316 792.54C407.279 772.267 400.466 751.549 389.733 732.209C371.354 699.091 344.42 676.487 316.761 670.018ZM411.909 825.03C428.746 838.025 447.161 850.72 467.017 863.041C446.353 860.272 426.601 855.571 408.358 849.091C410.235 841.437 411.437 833.377 411.909 825.03ZM557.077 863.051C576.887 850.733 595.321 837.986 612.243 824.89C612.709 833.288 613.915 841.396 615.804 849.091C597.537 855.581 577.765 860.284 557.077 863.051ZM739.408 781.507C741.798 784.679 745.443 786.351 749.13 786.351C751.678 786.351 754.248 785.551 756.44 783.901L771.272 772.719C769.836 793.754 763.625 816.094 752.529 836.093C734.87 867.912 708.885 887.676 684.71 887.676C674.895 887.676 666.071 884.29 658.482 877.617C630.46 852.966 629.183 791.782 655.695 744.012C665.861 725.7 678.785 711.389 692.533 702.53L688.438 729.569C687.433 736.212 692.001 742.411 698.642 743.416C699.26 743.509 699.873 743.554 700.479 743.554C706.392 743.554 711.577 739.234 712.489 733.21L716.624 705.891C717.348 701.111 715.173 696.571 711.427 694.021C715.473 692.977 719.515 692.428 723.508 692.428C733.325 692.428 742.151 695.813 749.74 702.49C761.276 712.637 768.27 728.982 770.666 748.028C767.323 747.3 763.696 747.967 760.749 750.187L741.796 764.471C736.435 768.517 735.364 776.143 739.408 781.507Z" fill="black"/>
</svg>
